<?xml version="1.0" encoding="UTF-8" standalone="no"?>
<svg
   xmlns:dc="http://purl.org/dc/elements/1.1/"
   xmlns:cc="http://creativecommons.org/ns#"
   xmlns:rdf="http://www.w3.org/1999/02/22-rdf-syntax-ns#"
   xmlns:svg="http://www.w3.org/2000/svg"
   xmlns="http://www.w3.org/2000/svg"
   xmlns:sodipodi="http://sodipodi.sourceforge.net/DTD/sodipodi-0.dtd"
   xmlns:inkscape="http://www.inkscape.org/namespaces/inkscape"
   fill="none"
   viewBox="0 0 24 24"
   stroke-width="1.5"
   stroke="currentColor"
   class="w-6 h-6"
   version="1.1"
   id="svg855"
   sodipodi:docname="coin.svg"
   inkscape:version="1.0.2 (e86c870879, 2021-01-15, custom)">
  <metadata
     id="metadata861">
    <rdf:RDF>
      <cc:Work
         rdf:about="">
        <dc:format>image/svg+xml</dc:format>
        <dc:type
           rdf:resource="http://purl.org/dc/dcmitype/StillImage" />
        <dc:title />
      </cc:Work>
    </rdf:RDF>
  </metadata>
  <defs
     id="defs859" />
  <sodipodi:namedview
     pagecolor="#ffffff"
     bordercolor="#666666"
     borderopacity="1"
     objecttolerance="10"
     gridtolerance="10"
     guidetolerance="10"
     inkscape:pageopacity="0"
     inkscape:pageshadow="2"
     inkscape:window-width="1920"
     inkscape:window-height="1017"
     id="namedview857"
     showgrid="false"
     inkscape:zoom="10.945424"
     inkscape:cx="-0.77848597"
     inkscape:cy="8.6737419"
     inkscape:window-x="-8"
     inkscape:window-y="-8"
     inkscape:window-maximized="1"
     inkscape:current-layer="svg855"
     inkscape:document-rotation="0" />
  <path
     stroke-linecap="round"
     stroke-linejoin="round"
     d="m 21.437711,11.012193 c 0,1.995918 -3.136759,3.614206 -7.005486,3.614206 -3.868728,0 -7.0054876,-1.618288 -7.0054876,-3.614206 m 14.0109736,0 c 0,-1.9959184 -3.136759,-3.6142066 -7.005486,-3.6142066 -3.868728,0 -7.0054876,1.6182882 -7.0054876,3.6142066 m 14.0109736,0 v 6.571284 c 0,1.995918 -3.136759,3.614206 -7.005486,3.614206 -3.868728,0 -7.0054876,-1.618288 -7.0054876,-3.614206 v -6.571284 m 14.0109736,3.908278 c 0,1.995918 -3.136759,2.991571 -7.005486,2.991571 -3.868728,0 -6.95063,-1.505083 -6.95063,-3.501"
     id="path853"
     sodipodi:nodetypes="csccsccsssccsc"
     style="fill:#ffff00;stroke-width:1.5" />
  <path
     stroke-linecap="round"
     stroke-linejoin="round"
     d="M 9.0698938,1.8041878 V 3.7755731 M 14.023835,3.9210175 12.672837,5.3150059 M 5.4669508,12.750195 4.1168023,14.143308 M 3.9749943,9.0326004 H 2.0644072 M 5.4669508,5.3150059 4.1168023,3.9218937"
     id="path1442"
     sodipodi:nodetypes="cccccccccc"
     style="fill:#808000;stroke-width:1.5" />
</svg>
