<?xml version="1.0" encoding="UTF-8" standalone="no"?>
<svg
   xmlns:dc="http://purl.org/dc/elements/1.1/"
   xmlns:cc="http://creativecommons.org/ns#"
   xmlns:rdf="http://www.w3.org/1999/02/22-rdf-syntax-ns#"
   xmlns:svg="http://www.w3.org/2000/svg"
   xmlns="http://www.w3.org/2000/svg"
   xmlns:sodipodi="http://sodipodi.sourceforge.net/DTD/sodipodi-0.dtd"
   xmlns:inkscape="http://www.inkscape.org/namespaces/inkscape"
   fill="none"
   viewBox="0 0 24 24"
   stroke-width="1.5"
   stroke="currentColor"
   class="w-6 h-6"
   version="1.1"
   id="svg855"
   sodipodi:docname="coin.svg"
   inkscape:version="1.0.2 (e86c870879, 2021-01-15, custom)">
  <metadata
     id="metadata861">
    <rdf:RDF>
      <cc:Work
         rdf:about="">
        <dc:format>image/svg+xml</dc:format>
        <dc:type
           rdf:resource="http://purl.org/dc/dcmitype/StillImage" />
        <dc:title></dc:title>
      </cc:Work>
    </rdf:RDF>
  </metadata>
  <defs
     id="defs859" />
  <sodipodi:namedview
     pagecolor="#ffffff"
     bordercolor="#666666"
     borderopacity="1"
     objecttolerance="10"
     gridtolerance="10"
     guidetolerance="10"
     inkscape:pageopacity="0"
     inkscape:pageshadow="2"
     inkscape:window-width="1267"
     inkscape:window-height="1009"
     id="namedview857"
     showgrid="false"
     inkscape:zoom="10.945424"
     inkscape:cx="-0.77848597"
     inkscape:cy="8.6737419"
     inkscape:window-x="78"
     inkscape:window-y="0"
     inkscape:window-maximized="0"
     inkscape:current-layer="svg855" />
  <path
     stroke-linecap="round"
     stroke-linejoin="round"
     d="M 20.25,6.375 C 20.25,8.653 16.556,10.5 12,10.5 7.444,10.5 3.75,8.653 3.75,6.375 m 16.5,0 C 20.25,4.097 16.556,2.25 12,2.25 7.444,2.25 3.75,4.097 3.75,6.375 m 16.5,0 v 7.5 C 20.25,16.153 16.556,18 12,18 7.444,18 3.75,16.153 3.75,13.875 v -7.5 m 16.5,4.460633 c 0,2.278 -3.694,3.414367 -8.25,3.414367 -4.556,0 -8.185397,-1.717794 -8.185397,-3.995794"
     id="path853"
     sodipodi:nodetypes="csccsccsssccsc"
     style="fill:#ffff00" />
  <path
     stroke-linecap="round"
     stroke-linejoin="round"
     d="m 5.6850605,-4.134367 v 2.25 m 5.8339995,0.166 -1.5909997,1.59100001 M 1.4420605,8.358633 -0.14793962,9.9486333 m -0.167,-5.8330002 H -2.5649395 m 4.007,-4.24300009 -1.59000012,-1.59000001"
     id="path1442"
     sodipodi:nodetypes="cccccccccc"
     style="fill:#808000" />
</svg>
